<?xml version="1.0" encoding="UTF-8"?>
<svg version="1.1" xmlns="http://www.w3.org/2000/svg" width="96" height="96">
<path d="M0 0 C8.1852132 6.47244832 12.89168317 15.46999876 15.0234375 25.58984375 C16.20852792 36.87238824 15.00979082 48.44200056 8.2734375 57.90234375 C7.21676341 59.15450255 6.13219295 60.38355889 5.0234375 61.58984375 C4.4253125 62.27820313 3.8271875 62.9665625 3.2109375 63.67578125 C-4.23119902 71.74809869 -13.46449376 76.03052592 -24.38671875 76.84375 C-36.59299515 77.22868852 -47.59830843 74.76619162 -56.9765625 66.58984375 C-67.63230845 55.64097858 -71.29349495 45.13576665 -71.12109375 30.08984375 C-70.69192831 19.69708065 -66.66916835 11.55896843 -59.9765625 3.58984375 C-59.3165625 3.58984375 -58.6565625 3.58984375 -57.9765625 3.58984375 C-57.6465625 2.59984375 -57.3165625 1.60984375 -56.9765625 0.58984375 C-39.93638007 -13.72838394 -17.3428474 -12.37305911 0 0 Z " fill="#B5B5B5" transform="translate(75.9765625,14.41015625)"/>
<path d="M0 0 C16.5 0 33 0 50 0 C50 5.61 50 11.22 50 17 C47.36 17 44.72 17 42 17 C42 19.64 42 22.28 42 25 C36.39 25 30.78 25 25 25 C25 22.36 25 19.72 25 17 C27.97 17 30.94 17 34 17 C34 14.36 34 11.72 34 9 C25.42 9 16.84 9 8 9 C8 11.64 8 14.28 8 17 C5.36 17 2.72 17 0 17 C0 11.39 0 5.78 0 0 Z " fill="#24BA1F" transform="translate(23,22)"/>
<path d="M0 0 C5.28 0 10.56 0 16 0 C16 2.64 16 5.28 16 8 C13.36 8 10.72 8 8 8 C8 10.64 8 13.28 8 16 C16.25 16 24.5 16 33 16 C33 13.36 33 10.72 33 8 C35.64 8 38.28 8 41 8 C41 13.28 41 18.56 41 24 C24.5 24 8 24 -9 24 C-9 18.72 -9 13.44 -9 8 C-6.03 8 -3.06 8 0 8 C0 5.36 0 2.72 0 0 Z " fill="#1C8D15" transform="translate(32,48)"/>
</svg>
